Coordinates
version=1
nRows=8
nColumns=40
inDegrees=yes

Units are S.I. units (second, meters, Newtons, ...)
If the header above contains a line with 'inDegrees', this indicates whether rotational values are in degrees (yes) or radians (no).

endheader
time	pelvis_tilt	pelvis_list	pelvis_rotation	pelvis_tx	pelvis_ty	pelvis_tz	hip_flexion_r	hip_adduction_r	hip_rotation_r	knee_angle_r	knee_angle_r_beta	ankle_angle_r	subtalar_angle_r	mtp_angle_r	hip_flexion_l	hip_adduction_l	hip_rotation_l	knee_angle_l	knee_angle_l_beta	ankle_angle_l	subtalar_angle_l	mtp_angle_l	lumbar_extension	lumbar_bending	lumbar_rotation	arm_flex_r	arm_add_r	arm_rot_r	elbow_flex_r	pro_sup_r	wrist_flex_r	wrist_dev_r	arm_flex_l	arm_add_l	arm_rot_l	elbow_flex_l	pro_sup_l	wrist_flex_l	wrist_dev_l
      3.25500000	    -41.65800746	      1.75667263	      3.88799357	      0.07248465	      0.55022122	     -1.17959259	    118.75203465	    -46.73034088	      6.73358661	     98.55894104	      1.72017803	     21.77792519	      4.63536190	      0.00000000	    112.45334614	    -39.55018431	      0.08631017	     92.01786305	      1.60601468	     19.91155814	     19.29440952	      0.00000000	      0.00000000	      0.00000000	      0.00000000	     44.82616277	    -15.01863568	     44.82616277	     75.00279141	     44.99999882	      0.00000000	      0.00000000	     44.82616277	    -15.01863568	     44.82616277	     75.00279141	     44.99999882	      0.00000000	      0.00000000
      3.26000000	    -41.68385952	      1.76297024	      3.88546197	      0.07254728	      0.54858250	     -1.17962900	    119.08610124	    -46.75239109	      6.98262615	     98.80873544	      1.72453776	     21.83798665	      4.72736182	      0.00000000	    112.73917731	    -39.58205464	      0.26674468	     92.28679023	      1.61070835	     19.94622073	     19.26204312	      0.00000000	      0.00000000	      0.00000000	      0.00000000	     44.83016912	    -15.01796651	     44.83016912	     75.00262960	     44.99999899	      0.00000000	      0.00000000	     44.83016912	    -15.01796651	     44.83016912	     75.00262960	     44.99999899	      0.00000000	      0.00000000
      3.26500000	    -41.68811440	      1.72026362	      3.88201310	      0.07261470	      0.54700310	     -1.17967821	    119.33482705	    -46.79561164	      7.15533321	     99.06137441	      1.72894714	     21.92157115	      4.79547950	      0.00000000	    113.05114170	    -39.58797503	      0.52748321	     92.55190232	      1.61533542	     19.99399483	     19.24033416	      0.00000000	      0.00000000	      0.00000000	      0.00000000	     44.83456573	    -15.01724016	     44.83456573	     75.00245782	     44.99999917	      0.00000000	      0.00000000	     44.83456573	    -15.01724016	     44.83456573	     75.00245782	     44.99999917	      0.00000000	      0.00000000
      3.27000000	    -41.68827482	      1.76722298	      3.83593758	      0.07271370	      0.54550017	     -1.17953484	    119.62460067	    -46.74620727	      7.40069642	     99.29371991	      1.73300234	     21.99026457	      4.83945331	      0.00000000	    113.24840850	    -39.68866802	      0.66646724	     92.79379125	      1.61955718	     20.17467572	     19.28251195	      0.00000000	      0.00000000	      0.00000000	      0.00000000	     44.83879788	    -15.01655153	     44.83879788	     75.00230007	     44.99999932	      0.00000000	      0.00000000	     44.83879788	    -15.01655153	     44.83879788	     75.00230007	     44.99999932	      0.00000000	      0.00000000
      3.27500000	    -41.66792618	      1.76013540	      3.82663198	      0.07277599	      0.54393221	     -1.17955615	    119.88621873	    -46.76084879	      7.61496421	     99.54521857	      1.73739182	     22.03959201	      4.85937679	      0.00000000	    113.50956466	    -39.71503879	      0.88590578	     93.06278195	      1.62425196	     20.22681217	     19.28410712	      0.00000000	      0.00000000	      0.00000000	      0.00000000	     44.84258678	    -15.01594549	     44.84258678	     75.00216610	     44.99999944	      0.00000000	      0.00000000	     44.84258678	    -15.01594549	     44.84258678	     75.00216610	     44.99999944	      0.00000000	      0.00000000
      3.28000000	    -41.71132637	      1.62336936	      3.83670475	      0.07281184	      0.54221502	     -1.17976413	    120.09052444	    -46.85766831	      7.68393269	     99.79360911	      1.74172705	     22.14130400	      4.96042022	      0.00000000	    113.97158031	    -39.64399979	      1.29802907	     93.34625967	      1.62919958	     20.21490905	     19.20752812	      0.00000000	      0.00000000	      0.00000000	      0.00000000	     44.84668431	    -15.01529791	     44.84668431	     75.00202637	     44.99999955	      0.00000000	      0.00000000	     44.84668431	    -15.01529791	     44.84668431	     75.00202637	     44.99999955	      0.00000000	      0.00000000
      3.28500000	    -41.63052778	      1.67463043	      3.79860785	      0.07298077	      0.54083287	     -1.17963925	    120.30934836	    -46.82663876	      7.94037658	    100.03996588	      1.74602679	     22.21746232	      5.01908692	      0.00000000	    114.08544362	    -39.73521291	      1.43625021	     93.59953887	      1.63362013	     20.40758499	     19.27647717	      0.00000000	      0.00000000	      0.00000000	      0.00000000	     44.85058065	    -15.01469187	     44.85058065	     75.00189994	     44.99999965	      0.00000000	      0.00000000	     44.85058065	    -15.01469187	     44.85058065	     75.00189994	     44.99999965	      0.00000000	      0.00000000
      3.29000000	    -41.62846204	      1.66753076	      3.79540707	      0.07306144	      0.53919542	     -1.17966263	    120.59889010	    -46.83900589	      8.18183819	    100.29841807	      1.75053763	     22.28666234	      5.07195150	      0.00000000	    114.36734853	    -39.74525979	      1.66605626	     93.87069617	      1.63835272	     20.43588932	     19.23994274	      0.00000000	      0.00000000	      0.00000000	      0.00000000	     44.85410998	    -15.01415132	     44.85410998	     75.00179068	     44.99999972	      0.00000000	      0.00000000	     44.85410998	    -15.01415132	     44.85410998	     75.00179068	     44.99999972	      0.00000000	      0.00000000
